<?xml version="1.0" standalone="no"?>
<!DOCTYPE svg PUBLIC "-//W3C//DTD SVG 20010904//EN"
 "http://www.w3.org/TR/2001/REC-SVG-20010904/DTD/svg10.dtd">
<svg version="1.0" xmlns="http://www.w3.org/2000/svg"
 width="230.000000pt" height="185.000000pt" viewBox="0 0 230.000000 185.000000"
 preserveAspectRatio="xMidYMid meet">
<metadata>
Created by potrace 1.16, written by Peter Selinger 2001-2019
</metadata>
<g transform="translate(0.000000,185.000000) scale(0.100000,-0.100000)"
fill="#000000" stroke="none">
<path d="M0 925 l0 -925 1150 0 1150 0 0 925 0 925 -1150 0 -1150 0 0 -925z
m1625 803 c-100 -72 -149 -154 -149 -248 0 -132 55 -189 344 -355 224 -128
299 -185 349 -264 101 -161 37 -379 -140 -476 -48 -26 -159 -60 -159 -49 0 3
16 19 35 36 20 17 47 51 62 75 23 39 25 52 21 113 -10 141 -99 230 -403 408
-158 92 -235 150 -275 206 -19 25 -37 46 -40 46 -4 0 -32 -57 -63 -127 -150
-347 -256 -594 -278 -646 -31 -78 -62 -111 -88 -97 -32 17 -50 50 -241 445
-182 375 -290 591 -316 630 -12 16 -14 -64 -14 -528 l0 -547 -55 0 -55 0 0
680 0 681 128 -3 127 -3 249 -499 249 -499 38 74 c20 41 85 194 144 339 136
336 175 416 242 490 61 67 146 114 234 129 81 13 87 12 54 -11z"/>
</g>
</svg>
